<svg xmlns="http://www.w3.org/2000/svg" viewBox="0 0 600 216.59"><g id="Layer_2" data-name="Layer 2"><g id="Layer_1-2" data-name="Layer 1"><path fill="#e12227" class="cls-1" d="M64.94,10A33,33,0,0,0,53.27,3.87,51.77,51.77,0,0,0,38.05,1.78H0V90.56H24.61V65.19H36.78a55.16,55.16,0,0,0,15.29-2,34.6,34.6,0,0,0,12.11-6.09,28.38,28.38,0,0,0,7.93-10A31.72,31.72,0,0,0,75,33.23V33a32.11,32.11,0,0,0-2.6-13.19A26.66,26.66,0,0,0,64.94,10ZM50.35,34.31a10.45,10.45,0,0,1-3.74,8.48q-3.73,3.14-10.33,3.13H24.61V22.32H36.15q6.72,0,10.46,3t3.74,8.74ZM160.58,13.44a46.9,46.9,0,0,0-15.1-9.83,51.94,51.94,0,0,0-38,0,47.77,47.77,0,0,0-15.22,9.9,45.29,45.29,0,0,0-13.7,32.66v.25a44.66,44.66,0,0,0,3.62,17.89,45.3,45.3,0,0,0,10,14.58,46.74,46.74,0,0,0,15.1,9.83,51.8,51.8,0,0,0,38,0,47.75,47.75,0,0,0,15.22-9.89,45.29,45.29,0,0,0,13.7-32.66v-.25A44.62,44.62,0,0,0,170.53,28,45.61,45.61,0,0,0,160.58,13.44ZM149,46.42a25.37,25.37,0,0,1-1.65,9.14,23.78,23.78,0,0,1-4.58,7.54,21.31,21.31,0,0,1-7.12,5.14,22.24,22.24,0,0,1-9.29,1.9,21.61,21.61,0,0,1-9.28-2,22.36,22.36,0,0,1-7.19-5.27,24,24,0,0,1-4.64-7.61,25.32,25.32,0,0,1-1.65-9.13v-.25a26,26,0,0,1,1.59-9.14,22.09,22.09,0,0,1,11.7-12.68,23.13,23.13,0,0,1,18.5.06,23.05,23.05,0,0,1,7.25,5.27A23.29,23.29,0,0,1,147.38,37,25.32,25.32,0,0,1,149,46.17ZM284.5,1.78H310L280.31,91.2H258.88L241,40.08,223.23,91.2H201.8L172.12,1.78h26l15.47,51.37L230.72,1.52H251.9L269,53.15Zm55.68,67.85h47.69V90.56H316V1.78h71.28V22.7H340.18V36.15h42.61V55.56H340.18Zm117.07-10a31.27,31.27,0,0,0,13.32-10.27q4.94-6.72,4.94-17v-.25q0-13.07-7.86-20.67a29.81,29.81,0,0,0-11.54-7.11,52.08,52.08,0,0,0-17.38-2.53h-42V90.56h24.6V63.67h10.78L450,90.56h28.41Zm-6.47-25.74a9.45,9.45,0,0,1-3.43,7.67q-3.42,2.85-9.76,2.85H421.35V23.08h16.11q6.21,0,9.77,2.6c2.36,1.74,3.55,4.38,3.55,7.93Z"/><path fill="#15569a" class="cls-2" d="M178.11,131.73H214.9v36a58.15,58.15,0,0,1-15.08,8.8,51.67,51.67,0,0,1-19.65,3.54,48.14,48.14,0,0,1-17.31-3,41.38,41.38,0,0,1-13.77-8.51A39.5,39.5,0,0,1,140,155.44a41.44,41.44,0,0,1-3.31-16.74v-.23a40.74,40.74,0,0,1,25.78-38.39,45.51,45.51,0,0,1,17.18-3.2A49.27,49.27,0,0,1,197.94,100a50,50,0,0,1,14.11,8.57l-13,15.65a35.91,35.91,0,0,0-8.85-5.6,26.38,26.38,0,0,0-10.46-1.94,19,19,0,0,0-8.05,1.71,20.36,20.36,0,0,0-6.46,4.69,22.44,22.44,0,0,0-4.34,7,22.76,22.76,0,0,0-1.6,8.57v.22a24.38,24.38,0,0,0,1.61,8.92,20,20,0,0,0,4.52,7,21.33,21.33,0,0,0,6.88,4.57A22.4,22.4,0,0,0,181,161q7.8,0,12.84-3.31V148H178.11Zm80.09-4.11L241.75,98.48H216.5l30.39,50.05v29.93h22.28V148.18l30.39-49.7H274.77ZM388,178.46v-80H364.57l-19.08,31-19.08-31H303v80h21.82v-45.7l20.28,31.08h.46l20.39-31.31v45.93Zm212-19.75v5.36a119.28,119.28,0,0,1-18.33,15.17q-8.08,5.16-13.93,5.16-7.53,0-13.93-6.4a17.17,17.17,0,0,1-4.68-7.36c-.14-.5-.25-1-.35-1.62q-5.38,4.92-8.47,7.62a59,59,0,0,1-7.76,5.92,12,12,0,0,1-6.25,2q-6.72,0-6.72-8a24.52,24.52,0,0,1,2-8.21q2-5.16,6.49-14.93-11.61,15.38-17.66,21.86t-9.88,6.48a7.87,7.87,0,0,1-5.61-2.52,16.53,16.53,0,0,1-4-6.8c-.17-.54-.33-1.08-.47-1.63q-13,15.27-21.71,15.28-5.68,0-8.93-6.21a29.48,29.48,0,0,1-2.91-10.3c-1.9,1.62-3.77,3.21-5.62,4.74A75.79,75.79,0,0,1,440.4,182a19.56,19.56,0,0,1-9.45,2.88,17.34,17.34,0,0,1-3.4-.36,26,26,0,0,1-3.33-.88c-1-.34-2.32-.84-3.92-1.48s-2.83-1.09-3.68-1.36a26,26,0,0,1-2.88.64,13.29,13.29,0,0,1-6.57-2.24,143.44,143.44,0,0,0-5.8,13.25q-3.17,8.13-5.32,12.93a41.91,41.91,0,0,1-5.77,9.21c-1.33,1.33-2.27,2-2.8,2q-3.44,0-3.44-6.09a31.76,31.76,0,0,1,2.12-11,64.38,64.38,0,0,1,5.2-10.84q3.09-5.13,6.77-10.37c2.45-3.49,4.19-6.1,5.2-7.8Q416,148.7,423,133.41q-18.4,22.41-27.85,32.18V160q11.2-12.17,19.33-22.9t12.85-17q4.72-6.32,8.32-8.93a15.09,15.09,0,0,1,9.05-2.6c1.81,0,2.72.7,2.72,2.08q0,1.68-2.2,5a45.49,45.49,0,0,1-5.64,6.72,65.19,65.19,0,0,0-8.93,11.25q-4.37,6.76-9.89,17.25,4.32-3.36,10-8t9.21-7.21a37.26,37.26,0,0,1,7-4.12,17.44,17.44,0,0,1,7-1.52c1.49,0,2.46.26,2.92.8a5.08,5.08,0,0,1,.68,3.12,25.92,25.92,0,0,1-3,11.89,59.52,59.52,0,0,1-8.49,12.05,181.21,181.21,0,0,1-13.61,13.61,16.52,16.52,0,0,0,5.76,1q7.24,0,18.31-8.6a2.81,2.81,0,0,1,0-.29q0-8.16,3.84-19.41a141.15,141.15,0,0,1,10.29-22.82,144,144,0,0,1,13.37-20.17q6.93-8.61,12.85-12a8.17,8.17,0,0,1,3.76-1.44A2.17,2.17,0,0,1,503,89.18a15.82,15.82,0,0,1,.56,5.08q0,11.13-9,27.34t-25.22,33.1a37.13,37.13,0,0,0-.8,6.41,14.37,14.37,0,0,0,2.2,8.32,7,7,0,0,0,6.13,3.21,7.89,7.89,0,0,0,4.32-1.56,44.51,44.51,0,0,0,4.88-3.89c.82-.74,2-1.83,3.58-3.27,0-.22,0-.43,0-.65a25.29,25.29,0,0,1,.6-5.76,23,23,0,0,1,2.28-5.65,52.69,52.69,0,0,1,4.44-6.68q2.78-3.6,6.77-8.17l4-4.72a9.27,9.27,0,0,1,3.2-2.6A13.64,13.64,0,0,1,516,129a17.08,17.08,0,0,1,4.88.68c1.55.45,2.32.92,2.32,1.4q0,1.44-2.36,5.2a59.54,59.54,0,0,1-7.6,9.17,106.19,106.19,0,0,1-12.13,10.61,25.53,25.53,0,0,0-1.52,7.2c0,2.3.88,3.44,2.64,3.44.64,0,1.71-.54,3.2-1.64s4-3.2,7.57-6.32,6.73-5.89,9.56-8.29a56.32,56.32,0,0,0,7.25-8.12c2.74-3.61,5-6.31,6.68-8.13q5.92-6.24,8.09-8.13a6.5,6.5,0,0,1,4.16-1.88,2.72,2.72,0,0,1,2.6,1.2c.45.8.68,2.43.68,4.89a9.59,9.59,0,0,1-.32,2.72,12.4,12.4,0,0,1-1.32,2.68c-.67,1.1-2,3.11-4,6.05l-7.21,10.4a41.58,41.58,0,0,0-3.92,7,16,16,0,0,0-1.68,5.72c0,2.78,1.09,4.16,3.28,4.16a12.41,12.41,0,0,0,6.33-2.24q2-1.23,5.12-3.55c0-.69,0-1.39,0-2.13v-1.92q20.65-21.78,28.42-30.5,1.77-9.85,8.49-9.85a8.09,8.09,0,0,1,3.6,1l.48,1.52a9.12,9.12,0,0,0-.32,2.72,25.8,25.8,0,0,0,1.16,5.65c.78,2.75,1.38,5.05,1.8,6.92a28.36,28.36,0,0,1,.64,6.33,22.51,22.51,0,0,1-2.4,10.12,34.36,34.36,0,0,1-7,9.29,76.15,76.15,0,0,1-11.77,9.09,29.38,29.38,0,0,0,4.56.48,17.93,17.93,0,0,0,7.09-1.65,44.39,44.39,0,0,0,7.76-4.4Q594.72,163.11,600,158.71ZM472.06,143.58a80.24,80.24,0,0,0,8.05-9.29,115.07,115.07,0,0,0,7.32-11.13,91,91,0,0,0,5.41-10.64c1.3-3.15,2-5.53,2-7.13,0-1.23-.43-1.84-1.28-1.84a4.58,4.58,0,0,0-1.84.88q-4.89,4-11,15.65A93.27,93.27,0,0,0,472.06,143.58Zm-32.58,11.76q3.87-5.84,3.88-9a2.61,2.61,0,0,0-3-3q-4,0-11.25,6.6a102.52,102.52,0,0,0-14.93,17.81,48.77,48.77,0,0,1,7.92-.44,16.29,16.29,0,0,1,5.53,2.12A110.83,110.83,0,0,0,439.48,155.34Zm135.82,6.85q2.93-3.88,2.93-10.61c0-.53,0-1,0-1.44s-.07-.85-.13-1.28l-1.44-11.69q-5,5.61-21.21,21.54c3.2.69,5.39,1.63,6.56,2.8a43.85,43.85,0,0,1,5,6.8A19.34,19.34,0,0,0,575.3,162.19Z"/></g></g></svg>